HIERARCHY
ROOT Hips
{
	OFFSET 0.00000 0.00000 0.00000
	CHANNELS 6 Xposition Yposition Zposition Zrotation Yrotation Xrotation 
	JOINT LHipJoint
	{
		OFFSET 0 0 0
		CHANNELS 3 Zrotation Yrotation Xrotation
		JOINT LeftHip
		{
			OFFSET 1.54859 -1.61379 0.86856
			CHANNELS 3 Zrotation Yrotation Xrotation
			JOINT LeftKnee
			{
				OFFSET 2.25087 -6.18423 0.00000
				CHANNELS 3 Zrotation Yrotation Xrotation
				JOINT LeftAnkle
				{
					OFFSET 2.40328 -6.60297 0.00000
					CHANNELS 3 Zrotation Yrotation Xrotation
					JOINT LeftToe
					{
						OFFSET 0.17435 -0.47901 2.02453
						CHANNELS 3 Zrotation Yrotation Xrotation
						End Site
						{
							OFFSET 0.00000 -0.00000 1.04844
						}
					}
				}
			}
		}
	}
	JOINT RHipJoint
	{
		OFFSET 0 0 0
		CHANNELS 3 Zrotation Yrotation Xrotation
		JOINT RightHip
		{
			OFFSET -1.54669 -1.61379 0.86856
			CHANNELS 3 Zrotation Yrotation Xrotation
			JOINT RightKnee
			{
				OFFSET -2.28132 -6.26789 0.00000
				CHANNELS 3 Zrotation Yrotation Xrotation
				JOINT RightAnkle
				{
					OFFSET -2.51636 -6.91365 0.00000
					CHANNELS 3 Zrotation Yrotation Xrotation
					JOINT RightToe
					{
						OFFSET -0.15124 -0.41552 2.21090
						CHANNELS 3 Zrotation Yrotation Xrotation
						End Site
						{
							OFFSET -0.00000 -0.00000 1.13399
						}
					}
				}
			}
		}
	}
	JOINT lowerback
	{
		OFFSET 0 0 0
		CHANNELS 3 Zrotation Yrotation Xrotation
		JOINT Chest
		{
			OFFSET -0.04287 2.26161 -0.25690
			CHANNELS 3 Zrotation Yrotation Xrotation
			JOINT Chest2
			{
				OFFSET 0.02248 2.28395 -0.10140
				CHANNELS 3 Zrotation Yrotation Xrotation
				JOINT lowerneck
				{
					OFFSET 0 0 0
					CHANNELS 3 Zrotation Yrotation Xrotation
					JOINT Neck
					{
						OFFSET -0.11644 1.38496 0.11345
						CHANNELS 3 Zrotation Yrotation Xrotation
						JOINT Head
						{
							OFFSET 0.29383 1.36600 0.06642
							CHANNELS 3 Zrotation Yrotation Xrotation
							End Site
							{
								OFFSET 0.11075 1.41395 -0.00294
							}
						}
					}
				}
				JOINT LeftCollar
				{
					OFFSET 0 0 0
					CHANNELS 3 Zrotation Yrotation Xrotation
					JOINT LeftShoulder
					{
						OFFSET 3.51628 0.59542 -0.30346
CHANNELS 3 Zrotation Xrotation Yrotation
						JOINT LeftElbow
						{
OFFSET 0 -4.764050 0.000000
CHANNELS 3 Zrotation Xrotation Yrotation
							JOINT LeftWrist
							{
OFFSET 0 -3.137590 -0.000000
CHANNELS 3 Zrotation Xrotation Yrotation
								JOINT lhand
								{
									OFFSET 0 0 0
CHANNELS 3 Zrotation Xrotation Yrotation
									JOINT LFingers
									{
OFFSET 0 -0.732260 -0.000000
CHANNELS 3 Zrotation Xrotation Yrotation
										End Site
										{
OFFSET 0 -0.590370 -0.000000
										}
									}
								}
								JOINT LThumb
								{
OFFSET 0 0.000000 0.000000
CHANNELS 3 Zrotation Xrotation Yrotation
									End Site
									{
OFFSET 0 -0.599380 0.599380
									}
								}
							}
						}
					}
				}
				JOINT RightCollar
				{
					OFFSET 0 0 0
					CHANNELS 3 Zrotation Yrotation Xrotation
					JOINT RightShoulder
					{
						OFFSET -3.30990 0.84213 -0.36430
CHANNELS 3 Zrotation Xrotation Yrotation
						JOINT RightElbow
						{
OFFSET 0 -5.101610 -0.000000
CHANNELS 3 Zrotation Xrotation Yrotation
							JOINT RightWrist
							{
OFFSET 0 -3.232670 -0.000000
CHANNELS 3 Zrotation Xrotation Yrotation
								JOINT rhand
								{
									OFFSET 0 0 0
CHANNELS 3 Zrotation Xrotation Yrotation
									JOINT RFingers
									{
OFFSET 0 -0.702000 -0.000000
CHANNELS 3 Zrotation Xrotation Yrotation
										End Site
										{
OFFSET 0 -0.565970 -0.000000
										}
									}
								}
								JOINT RThumb
								{
OFFSET 0 0.000000 0.000000
CHANNELS 3 Zrotation Xrotation Yrotation
									End Site
									{
OFFSET 0 -0.574610 0.574610
									}
								}
							}
						}
					}
				}
			}
		}
	}
}
MOTION
Frames: 6
Frame Time: 0.008333333333333333
0.974700 15.844500 4.376000 -179.761000 9.151500 178.647000 0.000000 0.000000 0.000000 -12.518900 1.707900 -4.862300 2.110100 9.091800 26.082800 0.854600 10.652500 -24.366400 0.211800 -2.962800 -8.175200 0.000000 0.000000 0.000000 18.460300 4.927600 -4.390100 -2.392800 -9.640300 27.819700 -0.114300 -17.957200 -26.385400 -0.477100 4.429600 -12.288600 -1.034300 -0.386900 0.900500 0.175300 -0.223000 5.439700 0.763000 -0.043100 5.118000 -10.692700 2.058800 -1.715100 12.448700 3.623300 -5.107800 5.484500 1.945200 -1.620800 -0.000000 0.000000 0.000000 8.054200 5.851200 -59.786300 107.556500 -58.802700 75.143200 23.001300 -31.394400 -30.154300 0.000000 0.000000 0.000000 -7.125000 0.000000 0.000000 -9.933200 61.966800 4.121600 -0.000000 0.000000 0.000000 -9.403700 6.759900 58.798400 -107.957600 -58.745800 -75.486200 -20.514500 -41.230200 -26.154400 0.000000 0.000000 0.000000 7.125000 0.000000 -0.000000 5.615800 2.426300 5.399300
0.976497 15.844510 4.374735 -179.805239 9.185013 178.703264 0.000000 0.000000 0.000000 -12.581530 1.531789 -4.853848 2.113049 9.097732 26.101424 0.925388 10.373843 -24.703606 0.112348 -2.125165 -5.853094 0.000000 0.000000 0.000000 18.412844 5.058463 -4.390462 -2.383156 -9.622242 27.762034 -0.229975 -17.509765 -26.730720 -0.320495 3.637808 -10.059983 -1.160290 -0.370765 0.816296 0.214595 -0.204240 5.409976 0.874424 -0.042472 5.135537 -11.012270 2.047214 -1.614816 12.688264 3.619421 -5.178939 5.613126 1.943113 -1.665918 0.000000 0.000000 0.000000 7.988667 5.913258 -59.753650 107.710063 -58.781038 75.274602 22.991626 -31.346824 -30.334228 0.000000 0.000000 0.000000 -7.125000 0.000000 0.000000 -10.059938 62.145373 4.217075 0.000000 0.000000 0.000000 -9.497461 6.794830 58.798540 -107.998179 -58.739937 -75.520916 -20.398892 -40.993516 -26.091345 0.000000 0.000000 0.000000 7.125000 0.000000 0.000000 5.678852 2.511740 5.451670
0.978424 15.840447 4.373607 -179.812795 9.185537 178.709422 0.000000 0.000000 0.000000 -12.592683 1.451360 -4.865444 2.120043 9.111852 26.145782 0.820270 10.973629 -24.372755 0.262117 -3.265794 -9.021966 0.000000 0.000000 0.000000 18.393472 5.121877 -4.345521 -2.373635 -9.604399 27.704976 -0.339099 -17.049404 -27.013912 -0.218003 2.981098 -8.227884 -1.207429 -0.361217 0.784042 0.216296 -0.191559 5.402575 0.902917 -0.038886 5.146204 -10.907871 2.059748 -1.564658 12.509256 3.616925 -5.187906 5.538371 1.938089 -1.672705 0.000000 0.000000 0.000000 7.971807 5.990570 -59.690398 107.790868 -58.769618 75.343654 23.152766 -31.234860 -30.286186 0.000000 0.000000 0.000000 -7.125000 0.000000 0.000000 -9.842448 62.138253 4.123436 0.000000 0.000000 0.000000 -9.531397 6.873713 58.815609 -108.117213 -58.722704 -75.622650 -20.263582 -40.913074 -26.044237 0.000000 0.000000 0.000000 7.125000 0.000000 0.000000 5.755587 2.584048 5.518567
0.979099 15.838807 4.370721 -179.723684 9.170805 178.713917 0.000000 0.000000 0.000000 -12.490501 1.417931 -4.838057 2.124574 9.120849 26.174040 0.911211 10.552661 -24.743717 0.146458 -2.464477 -6.791334 0.000000 0.000000 0.000000 18.446088 5.042401 -4.329337 -2.367236 -9.592467 27.666814 -0.475661 -16.422004 -27.314409 -0.120279 2.235306 -6.156504 -1.026177 -0.351573 0.742743 0.166686 -0.178893 5.420760 0.750622 -0.023024 5.186972 -10.239547 2.177455 -1.659433 11.797649 3.727031 -5.086475 5.201631 1.988426 -1.619499 0.000000 0.000000 0.000000 8.082168 6.040169 -59.657688 107.900247 -58.754022 75.437170 23.244768 -30.994301 -30.310841 0.000000 0.000000 0.000000 -7.125000 0.000000 0.000000 -9.751245 62.186726 4.095906 0.000000 0.000000 0.000000 -9.412602 6.933297 58.853298 -108.151164 -58.717805 -75.651669 -20.156089 -40.823958 -26.097927 0.000000 0.000000 0.000000 7.125000 0.000000 0.000000 5.825985 2.547687 5.590647
0.978864 15.839316 4.369200 -179.790865 9.184713 178.699467 0.000000 0.000000 0.000000 -12.560139 1.463319 -4.835554 2.126680 9.125128 26.187576 0.977553 10.202415 -24.978128 0.075813 -1.766387 -4.860739 0.000000 0.000000 0.000000 18.347945 4.947271 -4.346384 -2.365858 -9.589716 27.658211 -0.432627 -16.527445 -27.108052 -0.148728 2.484548 -6.846872 -1.059329 -0.323851 0.713016 0.118944 -0.137225 5.439394 0.721430 -0.002226 5.222766 -10.752323 2.064527 -1.507145 12.393499 3.623911 -5.296885 5.474127 1.939106 -1.710900 0.000000 0.000000 0.000000 8.185268 6.025522 -59.709606 108.038496 -58.734106 75.555369 23.459974 -30.874518 -30.215504 0.000000 0.000000 0.000000 -7.125000 0.000000 0.000000 -9.441195 62.145870 3.955656 0.000000 0.000000 0.000000 -9.300304 6.889960 58.896258 -108.015901 -58.737365 -75.536031 -20.527445 -41.095609 -26.320089 0.000000 0.000000 0.000000 7.125000 0.000000 0.000000 5.625765 2.253253 5.426697
0.978413 15.839486 4.369657 -179.880235 9.223574 178.648154 0.000000 0.000000 0.000000 -12.668119 1.445330 -4.773441 2.128618 9.129001 26.199669 0.939598 10.444515 -24.879657 0.113434 -2.169134 -5.973548 0.000000 0.000000 0.000000 18.247622 4.871832 -4.342648 -2.367836 -9.593476 27.670086 -0.345365 -16.818527 -26.778459 -0.223455 3.023247 -8.344951 -1.219948 -0.313543 0.775565 0.154955 -0.120289 5.444714 0.849365 -0.001199 5.193551 -10.999092 2.081663 -1.545619 12.451293 3.646948 -5.266496 5.534084 1.953790 -1.703778 0.000000 0.000000 0.000000 8.077758 6.042679 -59.684247 108.189111 -58.712206 75.684082 23.570952 -30.674525 -30.067528 0.000000 0.000000 0.000000 -7.125000 0.000000 0.000000 -9.218977 62.024821 3.834980 0.000000 0.000000 0.000000 -9.394861 6.798702 58.973147 -107.880373 -58.756804 -75.420208 -20.733540 -41.243307 -26.370918 0.000000 0.000000 0.000000 7.125000 0.000000 0.000000 5.507245 2.163987 5.320249
